<mxfile host="Electron" modified="2024-06-07T18:55:23.217Z" agent="Mozilla/5.0 (Macintosh; Intel Mac OS X 10_15_7) AppleWebKit/537.36 (KHTML, like Gecko) draw.io/24.4.13 Chrome/124.0.6367.207 Electron/30.0.6 Safari/537.36" etag="dZ9nJdr5A03ZtXJo5imU" version="24.4.13" type="device">
  <diagram name="Page-1" id="2YBvvXClWsGukQMizWep">
    <mxGraphModel dx="1876" dy="678" grid="1" gridSize="10" guides="1" tooltips="1" connect="1" arrows="1" fold="1" page="1" pageScale="1" pageWidth="850" pageHeight="1100" math="0" shadow="0">
      <root>
        <mxCell id="0" />
        <mxCell id="1" parent="0" />
        <mxCell id="aM9ryv3xv72pqoxQDRHE-1" value="&amp;lt;&amp;lt;actor&amp;gt;&amp;gt;&lt;br&gt;&lt;b&gt;Admin&lt;/b&gt;" style="shape=umlLifeline;perimeter=lifelinePerimeter;whiteSpace=wrap;html=1;container=0;dropTarget=0;collapsible=0;recursiveResize=0;outlineConnect=0;portConstraint=eastwest;newEdgeStyle={&quot;edgeStyle&quot;:&quot;elbowEdgeStyle&quot;,&quot;elbow&quot;:&quot;vertical&quot;,&quot;curved&quot;:0,&quot;rounded&quot;:0};" parent="1" vertex="1">
          <mxGeometry x="330" y="120" width="100" height="440" as="geometry" />
        </mxCell>
        <mxCell id="aM9ryv3xv72pqoxQDRHE-3" value="addNewMember()" style="html=1;verticalAlign=bottom;startArrow=oval;endArrow=block;startSize=8;edgeStyle=elbowEdgeStyle;elbow=vertical;curved=0;rounded=0;" parent="aM9ryv3xv72pqoxQDRHE-1" target="aM9ryv3xv72pqoxQDRHE-2" edge="1">
          <mxGeometry relative="1" as="geometry">
            <mxPoint x="-280" y="170" as="sourcePoint" />
            <Array as="points">
              <mxPoint x="-300" y="260" />
            </Array>
          </mxGeometry>
        </mxCell>
        <mxCell id="z7xSt242iSYAOXCbgvOX-2" value="UI&lt;br&gt;AddMemberWindow" style="shape=umlLifeline;perimeter=lifelinePerimeter;whiteSpace=wrap;html=1;container=0;dropTarget=0;collapsible=0;recursiveResize=0;outlineConnect=0;portConstraint=eastwest;newEdgeStyle={&quot;edgeStyle&quot;:&quot;elbowEdgeStyle&quot;,&quot;elbow&quot;:&quot;vertical&quot;,&quot;curved&quot;:0,&quot;rounded&quot;:0};" vertex="1" parent="1">
          <mxGeometry x="465" y="120" width="135" height="440" as="geometry" />
        </mxCell>
        <mxCell id="z7xSt242iSYAOXCbgvOX-3" value="" style="html=1;points=[];perimeter=orthogonalPerimeter;outlineConnect=0;targetShapes=umlLifeline;portConstraint=eastwest;newEdgeStyle={&quot;edgeStyle&quot;:&quot;elbowEdgeStyle&quot;,&quot;elbow&quot;:&quot;vertical&quot;,&quot;curved&quot;:0,&quot;rounded&quot;:0};" vertex="1" parent="z7xSt242iSYAOXCbgvOX-2">
          <mxGeometry x="62.5" y="78" width="10" height="342" as="geometry" />
        </mxCell>
        <mxCell id="z7xSt242iSYAOXCbgvOX-31" value="" style="html=1;points=[];perimeter=orthogonalPerimeter;outlineConnect=0;targetShapes=umlLifeline;portConstraint=eastwest;newEdgeStyle={&quot;edgeStyle&quot;:&quot;elbowEdgeStyle&quot;,&quot;elbow&quot;:&quot;vertical&quot;,&quot;curved&quot;:0,&quot;rounded&quot;:0};" vertex="1" parent="z7xSt242iSYAOXCbgvOX-2">
          <mxGeometry x="68" y="389" width="10" height="25" as="geometry" />
        </mxCell>
        <mxCell id="z7xSt242iSYAOXCbgvOX-32" value="8 : show result on UI" style="html=1;verticalAlign=bottom;endArrow=block;edgeStyle=elbowEdgeStyle;rounded=0;" edge="1" parent="z7xSt242iSYAOXCbgvOX-2">
          <mxGeometry x="0.12" y="42" relative="1" as="geometry">
            <mxPoint x="73" y="370" as="sourcePoint" />
            <Array as="points">
              <mxPoint x="123" y="470" />
            </Array>
            <mxPoint x="80" y="402" as="targetPoint" />
            <mxPoint as="offset" />
          </mxGeometry>
        </mxCell>
        <mxCell id="aM9ryv3xv72pqoxQDRHE-2" value="" style="html=1;points=[];perimeter=orthogonalPerimeter;outlineConnect=0;targetShapes=umlLifeline;portConstraint=eastwest;newEdgeStyle={&quot;edgeStyle&quot;:&quot;elbowEdgeStyle&quot;,&quot;elbow&quot;:&quot;vertical&quot;,&quot;curved&quot;:0,&quot;rounded&quot;:0};" parent="1" vertex="1">
          <mxGeometry x="50" y="370" width="10" height="190" as="geometry" />
        </mxCell>
        <mxCell id="z7xSt242iSYAOXCbgvOX-11" value="SystemController" style="shape=umlLifeline;perimeter=lifelinePerimeter;whiteSpace=wrap;html=1;container=0;dropTarget=0;collapsible=0;recursiveResize=0;outlineConnect=0;portConstraint=eastwest;newEdgeStyle={&quot;edgeStyle&quot;:&quot;elbowEdgeStyle&quot;,&quot;elbow&quot;:&quot;vertical&quot;,&quot;curved&quot;:0,&quot;rounded&quot;:0};" vertex="1" parent="1">
          <mxGeometry x="700" y="120" width="100" height="440" as="geometry" />
        </mxCell>
        <mxCell id="z7xSt242iSYAOXCbgvOX-12" value="" style="html=1;points=[];perimeter=orthogonalPerimeter;outlineConnect=0;targetShapes=umlLifeline;portConstraint=eastwest;newEdgeStyle={&quot;edgeStyle&quot;:&quot;elbowEdgeStyle&quot;,&quot;elbow&quot;:&quot;vertical&quot;,&quot;curved&quot;:0,&quot;rounded&quot;:0};" vertex="1" parent="z7xSt242iSYAOXCbgvOX-11">
          <mxGeometry x="45" y="100" width="10" height="270" as="geometry" />
        </mxCell>
        <mxCell id="z7xSt242iSYAOXCbgvOX-13" value="1 : newMember()" style="html=1;verticalAlign=bottom;startArrow=oval;endArrow=block;startSize=8;edgeStyle=elbowEdgeStyle;elbow=vertical;curved=0;rounded=0;entryX=-0.3;entryY=0.007;entryDx=0;entryDy=0;entryPerimeter=0;" edge="1" parent="1" target="z7xSt242iSYAOXCbgvOX-3" source="aM9ryv3xv72pqoxQDRHE-1">
          <mxGeometry relative="1" as="geometry">
            <mxPoint x="410" y="200" as="sourcePoint" />
            <mxPoint x="510" y="200" as="targetPoint" />
          </mxGeometry>
        </mxCell>
        <mxCell id="z7xSt242iSYAOXCbgvOX-14" value="Address" style="shape=umlLifeline;perimeter=lifelinePerimeter;whiteSpace=wrap;html=1;container=0;dropTarget=0;collapsible=0;recursiveResize=0;outlineConnect=0;portConstraint=eastwest;newEdgeStyle={&quot;edgeStyle&quot;:&quot;elbowEdgeStyle&quot;,&quot;elbow&quot;:&quot;vertical&quot;,&quot;curved&quot;:0,&quot;rounded&quot;:0};" vertex="1" parent="1">
          <mxGeometry x="1030" y="120" width="100" height="440" as="geometry" />
        </mxCell>
        <mxCell id="z7xSt242iSYAOXCbgvOX-15" value="" style="html=1;points=[];perimeter=orthogonalPerimeter;outlineConnect=0;targetShapes=umlLifeline;portConstraint=eastwest;newEdgeStyle={&quot;edgeStyle&quot;:&quot;elbowEdgeStyle&quot;,&quot;elbow&quot;:&quot;vertical&quot;,&quot;curved&quot;:0,&quot;rounded&quot;:0};" vertex="1" parent="z7xSt242iSYAOXCbgvOX-14">
          <mxGeometry x="45" y="230" width="10" height="30" as="geometry" />
        </mxCell>
        <mxCell id="z7xSt242iSYAOXCbgvOX-16" value="LibraryMember" style="shape=umlLifeline;perimeter=lifelinePerimeter;whiteSpace=wrap;html=1;container=0;dropTarget=0;collapsible=0;recursiveResize=0;outlineConnect=0;portConstraint=eastwest;newEdgeStyle={&quot;edgeStyle&quot;:&quot;elbowEdgeStyle&quot;,&quot;elbow&quot;:&quot;vertical&quot;,&quot;curved&quot;:0,&quot;rounded&quot;:0};" vertex="1" parent="1">
          <mxGeometry x="1160" y="120" width="100" height="440" as="geometry" />
        </mxCell>
        <mxCell id="z7xSt242iSYAOXCbgvOX-17" value="" style="html=1;points=[];perimeter=orthogonalPerimeter;outlineConnect=0;targetShapes=umlLifeline;portConstraint=eastwest;newEdgeStyle={&quot;edgeStyle&quot;:&quot;elbowEdgeStyle&quot;,&quot;elbow&quot;:&quot;vertical&quot;,&quot;curved&quot;:0,&quot;rounded&quot;:0};" vertex="1" parent="z7xSt242iSYAOXCbgvOX-16">
          <mxGeometry x="45" y="280" width="10" height="30" as="geometry" />
        </mxCell>
        <mxCell id="z7xSt242iSYAOXCbgvOX-26" value="6 : newLibraryMember(Id, fN, lN, tel, address)" style="html=1;verticalAlign=bottom;startArrow=oval;endArrow=block;startSize=8;edgeStyle=elbowEdgeStyle;elbow=vertical;curved=0;rounded=0;" edge="1" parent="z7xSt242iSYAOXCbgvOX-16" source="z7xSt242iSYAOXCbgvOX-17" target="z7xSt242iSYAOXCbgvOX-16">
          <mxGeometry x="1" y="-330" relative="1" as="geometry">
            <mxPoint x="-400" y="280" as="sourcePoint" />
            <mxPoint x="-5" y="280" as="targetPoint" />
            <mxPoint x="-329" y="315" as="offset" />
          </mxGeometry>
        </mxCell>
        <mxCell id="z7xSt242iSYAOXCbgvOX-18" value="DataAccess" style="shape=umlLifeline;perimeter=lifelinePerimeter;whiteSpace=wrap;html=1;container=0;dropTarget=0;collapsible=0;recursiveResize=0;outlineConnect=0;portConstraint=eastwest;newEdgeStyle={&quot;edgeStyle&quot;:&quot;elbowEdgeStyle&quot;,&quot;elbow&quot;:&quot;vertical&quot;,&quot;curved&quot;:0,&quot;rounded&quot;:0};" vertex="1" parent="1">
          <mxGeometry x="890" y="120" width="100" height="440" as="geometry" />
        </mxCell>
        <mxCell id="z7xSt242iSYAOXCbgvOX-19" value="" style="html=1;points=[];perimeter=orthogonalPerimeter;outlineConnect=0;targetShapes=umlLifeline;portConstraint=eastwest;newEdgeStyle={&quot;edgeStyle&quot;:&quot;elbowEdgeStyle&quot;,&quot;elbow&quot;:&quot;vertical&quot;,&quot;curved&quot;:0,&quot;rounded&quot;:0};" vertex="1" parent="z7xSt242iSYAOXCbgvOX-18">
          <mxGeometry x="45" y="120" width="10" height="30" as="geometry" />
        </mxCell>
        <mxCell id="z7xSt242iSYAOXCbgvOX-29" value="" style="html=1;points=[];perimeter=orthogonalPerimeter;outlineConnect=0;targetShapes=umlLifeline;portConstraint=eastwest;newEdgeStyle={&quot;edgeStyle&quot;:&quot;elbowEdgeStyle&quot;,&quot;elbow&quot;:&quot;vertical&quot;,&quot;curved&quot;:0,&quot;rounded&quot;:0};" vertex="1" parent="z7xSt242iSYAOXCbgvOX-18">
          <mxGeometry x="45" y="321" width="10" height="30" as="geometry" />
        </mxCell>
        <mxCell id="z7xSt242iSYAOXCbgvOX-23" value="2 : addNewLibraryMember(&lt;div&gt;id, firstName, lastName, ...)&lt;/div&gt;" style="html=1;verticalAlign=bottom;startArrow=oval;endArrow=block;startSize=8;edgeStyle=elbowEdgeStyle;elbow=vertical;curved=0;rounded=0;" edge="1" parent="1">
          <mxGeometry relative="1" as="geometry">
            <mxPoint x="540" y="220" as="sourcePoint" />
            <mxPoint x="750" y="220" as="targetPoint" />
          </mxGeometry>
        </mxCell>
        <mxCell id="z7xSt242iSYAOXCbgvOX-24" value="3 : searchMember(Id)" style="html=1;verticalAlign=bottom;startArrow=oval;endArrow=block;startSize=8;edgeStyle=elbowEdgeStyle;elbow=vertical;curved=0;rounded=0;" edge="1" parent="1" target="z7xSt242iSYAOXCbgvOX-19">
          <mxGeometry relative="1" as="geometry">
            <mxPoint x="760" y="240" as="sourcePoint" />
            <mxPoint x="1010" y="240" as="targetPoint" />
          </mxGeometry>
        </mxCell>
        <mxCell id="z7xSt242iSYAOXCbgvOX-21" value="" style="html=1;points=[];perimeter=orthogonalPerimeter;outlineConnect=0;targetShapes=umlLifeline;portConstraint=eastwest;newEdgeStyle={&quot;edgeStyle&quot;:&quot;elbowEdgeStyle&quot;,&quot;elbow&quot;:&quot;vertical&quot;,&quot;curved&quot;:0,&quot;rounded&quot;:0};" vertex="1" parent="1">
          <mxGeometry x="750" y="295" width="10" height="25" as="geometry" />
        </mxCell>
        <mxCell id="aM9ryv3xv72pqoxQDRHE-9" value="4 : validate()" style="html=1;verticalAlign=bottom;endArrow=block;edgeStyle=elbowEdgeStyle;rounded=0;" parent="1" edge="1">
          <mxGeometry x="0.024" y="35" relative="1" as="geometry">
            <mxPoint x="755" y="276" as="sourcePoint" />
            <Array as="points">
              <mxPoint x="805" y="376" />
            </Array>
            <mxPoint x="762" y="308" as="targetPoint" />
            <mxPoint as="offset" />
          </mxGeometry>
        </mxCell>
        <mxCell id="z7xSt242iSYAOXCbgvOX-25" value="5 : newAddress(street, city, state, zip)" style="html=1;verticalAlign=bottom;startArrow=oval;endArrow=block;startSize=8;edgeStyle=elbowEdgeStyle;elbow=vertical;curved=0;rounded=0;" edge="1" parent="1" target="z7xSt242iSYAOXCbgvOX-15">
          <mxGeometry relative="1" as="geometry">
            <mxPoint x="760" y="350" as="sourcePoint" />
            <mxPoint x="1150" y="350" as="targetPoint" />
          </mxGeometry>
        </mxCell>
        <mxCell id="z7xSt242iSYAOXCbgvOX-27" value="" style="html=1;verticalAlign=bottom;startArrow=oval;endArrow=block;startSize=8;edgeStyle=elbowEdgeStyle;elbow=vertical;curved=0;rounded=0;" edge="1" parent="1" target="z7xSt242iSYAOXCbgvOX-17">
          <mxGeometry relative="1" as="geometry">
            <mxPoint x="760" y="400" as="sourcePoint" />
            <mxPoint x="1290" y="400" as="targetPoint" />
          </mxGeometry>
        </mxCell>
        <mxCell id="z7xSt242iSYAOXCbgvOX-28" value="" style="html=1;verticalAlign=bottom;startArrow=oval;endArrow=block;startSize=8;edgeStyle=elbowEdgeStyle;elbow=vertical;curved=0;rounded=0;" edge="1" parent="1" target="z7xSt242iSYAOXCbgvOX-29">
          <mxGeometry relative="1" as="geometry">
            <mxPoint x="757.5" y="442" as="sourcePoint" />
            <mxPoint x="1010" y="442" as="targetPoint" />
          </mxGeometry>
        </mxCell>
        <mxCell id="z7xSt242iSYAOXCbgvOX-30" value="7 : saveNewMember(libraryMember)" style="html=1;verticalAlign=bottom;startArrow=oval;endArrow=block;startSize=8;edgeStyle=elbowEdgeStyle;elbow=vertical;curved=0;rounded=0;" edge="1" parent="1">
          <mxGeometry x="NaN" y="410" relative="1" as="geometry">
            <mxPoint x="1300" y="425" as="sourcePoint" />
            <mxPoint x="1300" y="425" as="targetPoint" />
            <mxPoint x="-410" y="15" as="offset" />
          </mxGeometry>
        </mxCell>
      </root>
    </mxGraphModel>
  </diagram>
</mxfile>
